<svg xmlns="http://www.w3.org/2000/svg" width="16" height="15" viewBox="0 0 16 15" fill="none"><path d="M14.1102 13.022C14.4399 13.022 14.9344 12.8571 15.0992 12.6923C15.4289 12.3626 15.5937 12.033 15.5937 11.7033V1.48352C15.5937 1.31868 15.5937 0.98901 15.4289 0.98901C15.4289 0.824175 15.264 0.65934 15.0992 0.494505C15.0992 0.32967 14.9344 0.164835 14.7695 0.164835C14.6047 0.164835 14.4399 0 14.1102 0H3.89045C3.56078 0 3.23111 0.164835 2.90144 0.32967C2.7366 0.65934 2.57177 0.98901 2.57177 1.48352C2.57177 1.97802 2.7366 2.30769 2.90144 2.47252C3.23111 2.63736 3.56078 2.8022 3.89045 2.8022H10.6487L1.08826 12.5274C0.758585 12.8571 0.59375 13.1868 0.59375 13.5165C0.59375 13.8462 0.758585 14.1758 1.08826 14.5055C1.25309 14.8351 1.58276 15 2.07727 15C2.40694 15 2.7366 14.8351 3.06627 14.5055L12.7915 4.94506V11.7033C12.7915 12.033 12.9564 12.3626 13.1212 12.6923C13.4509 12.8571 13.7805 13.022 14.1102 13.022Z" fill="#999999"></path></svg>