<svg xmlns="http://www.w3.org/2000/svg" width="30" height="30" viewBox="0 0 30 30" fill="none"><path d="M26.9212 26.044C27.5633 26.044 28.5265 25.7143 28.8476 25.3846C29.4897 24.7253 29.8108 24.0659 29.8108 23.4066V2.96703C29.8108 2.63736 29.8108 1.97802 29.4897 1.97802C29.4897 1.64835 29.1686 1.31868 28.8476 0.989011C28.8476 0.659341 28.5265 0.32967 28.2054 0.32967C27.8844 0.32967 27.5633 0 26.9212 0H7.01507C6.37294 0 5.73081 0.32967 5.08868 0.659341C4.76761 1.31868 4.44654 1.97802 4.44654 2.96703C4.44654 3.95604 4.76761 4.61538 5.08868 4.94505C5.73081 5.27472 6.37294 5.6044 7.01507 5.6044H20.1788L1.55695 25.0549C0.914816 25.7143 0.59375 26.3736 0.59375 27.033C0.59375 27.6923 0.914816 28.3516 1.55695 29.011C1.87801 29.6703 2.52015 30 3.48335 30C4.12548 30 4.76761 29.6703 5.40974 29.011L24.3526 9.89011V23.4066C24.3526 24.0659 24.6737 24.7253 24.9948 25.3846C25.6369 25.7143 26.279 26.044 26.9212 26.044Z" fill="#999999"></path></svg>